<?xml version="1.0" encoding="utf-8"?>
<!-- Generator: Adobe Illustrator 21.1.0, SVG Export Plug-In . SVG Version: 6.00 Build 0)  -->
<svg version="1.1" id="レイヤー_1" xmlns="http://www.w3.org/2000/svg" xmlns:xlink="http://www.w3.org/1999/xlink" x="0px"
	 y="0px" viewBox="0 0 60 60" style="enable-background:new 0 0 60 60;" xml:space="preserve">
<style type="text/css">
	.st0{display:none;}
	.st1{display:inline;fill:none;stroke:#8E8E8E;stroke-miterlimit:10;}
	.st2{display:inline;}
	.st3{fill:none;stroke:#8E8E8E;stroke-miterlimit:10;}
	.st4{fill:none;stroke:#919191;stroke-miterlimit:10;}
	.st5{fill:none;stroke:#FFFFFF;stroke-width:2;stroke-miterlimit:10;}
	.st6{display:inline;fill:#919191;}
	.st7{font-family:'HiraKakuProN-W3-83pv-RKSJ-H';}
	.st8{font-size:20px;}
	.st9{letter-spacing:2;}
	.st10{display:inline;fill:none;stroke:#919191;stroke-miterlimit:10;}
</style>
<g id="nav_x5F_about_x5F_icon" class="st0">
	<path class="st1" d="M40.1,42.4H22.4c-2.8,0-5-2.2-5-5V19.7c0-2.8,2.2-5,5-5h17.7c2.8,0,5,2.2,5,5v17.7
		C45.1,40.1,42.9,42.4,40.1,42.4z"/>
</g>
<g id="nav_x5F_user_x5F_icon" class="st0">
	<g class="st2">
		<circle class="st3" cx="31.2" cy="19.4" r="4.7"/>
		<path class="st3" d="M31.3,30c-1.5,0-2.8-0.3-4.1-0.8l-6.3,3.9l1,9.2h18.9l1-9.2l-6.3-3.9C34.1,29.7,32.7,30,31.3,30z"/>
	</g>
</g>
<g id="nav_x5F_prapoly_x5F_icon" class="st0">
	<g class="st2">
		<line class="st3" x1="17.3" y1="17.6" x2="45.1" y2="17.6"/>
		<line class="st3" x1="17.3" y1="28.5" x2="33.7" y2="28.5"/>
		<line class="st3" x1="17.3" y1="39.5" x2="45.1" y2="39.5"/>
	</g>
</g>
<g id="nav_x5F_link_x5F_icon" class="st0">
	<g class="st2">
		<rect x="17.6" y="16.8" class="st3" width="22.1" height="17.7"/>
		<polyline class="st3" points="45,21 45,40.2 22,40.2 		"/>
	</g>
</g>
<g id="menu_x5F_buy_x5F_tk" class="st0">
	<g class="st2">
		<g>
			<g>
				<polygon class="st4" points="56,48 11.1,48 11.1,31.7 14.2,28.6 11.1,28.6 11.1,22.4 56,22.4 				"/>
			</g>
			<g>
				<g>
					<line class="st4" x1="22.9" y1="42" x2="22.9" y2="46"/>
				</g>
				<g>
					<line class="st4" x1="22.9" y1="36.1" x2="22.9" y2="40.1"/>
				</g>
				<g>
					<line class="st4" x1="22.9" y1="30.2" x2="22.9" y2="34.2"/>
				</g>
				<g>
					<line class="st4" x1="22.9" y1="24.4" x2="22.9" y2="28.4"/>
				</g>
			</g>
		</g>
		<g>
			<g>
				<polyline class="st4" points="48.9,18.1 48.9,12.7 4,12.7 4,18.9 7.2,18.9 4,22 4,35.5 7.4,35.5 				"/>
			</g>
		</g>
	</g>
</g>
<g id="menu_x5F_holder_x5F_tk">
	<g>
		<g>
			<g>
				<path class="st5" d="M1.2,53.7v-8.2h21.5c0,4.1,4,7.4,8.6,7.4c4.6,0,8.7-3.3,8.7-7.4h18.8v8.2"/>
			</g>
		</g>
		<g>
			<g>
				<polyline class="st5" points="49.3,45.4 49.3,9.4 38.7,9.4 38.7,14.7 33.6,9.4 10.7,9.4 10.7,45.4 				"/>
			</g>
			<g>
				<g>
					<line class="st5" x1="20.1" y1="29.3" x2="15.4" y2="29.3"/>
				</g>
				<g>
					<line class="st5" x1="28.3" y1="29.3" x2="23.6" y2="29.3"/>
				</g>
				<g>
					<line class="st5" x1="36.5" y1="29.3" x2="31.8" y2="29.3"/>
				</g>
				<g>
					<line class="st5" x1="44.6" y1="29.3" x2="39.9" y2="29.3"/>
				</g>
			</g>
		</g>
	</g>
</g>
<g id="menu_x5F_point" class="st0">
	<text transform="matrix(1 0 0 1 24.3802 38.2395)" class="st6 st7 st8 st9">P</text>
	<circle class="st10" cx="31" cy="30" r="20.2"/>
</g>
</svg>
