<svg xmlns="http://www.w3.org/2000/svg" viewBox="0 0 118.54 201.86"><defs><style>.cls-1{fill:#fff;}.cls-2,.cls-3{fill:none;stroke:#fff;stroke-miterlimit:10;}.cls-2{stroke-width:1.67px;}.cls-3{stroke-width:1.3px;}.cls-4{fill:#00a0e9;}</style></defs><title>アセット 12</title><g id="レイヤー_2" data-name="レイヤー 2"><g id="レイヤー_1-2" data-name="レイヤー 1"><path class="cls-1" d="M106,1.74A10.79,10.79,0,0,1,116.8,12.51V189.35A10.79,10.79,0,0,1,106,200.13H12.51A10.79,10.79,0,0,1,1.74,189.35V12.51A10.79,10.79,0,0,1,12.51,1.74H106M106,0H12.51A12.51,12.51,0,0,0,0,12.51V189.35a12.51,12.51,0,0,0,12.51,12.51H106a12.51,12.51,0,0,0,12.51-12.51V12.51A12.51,12.51,0,0,0,106,0Z"/><rect class="cls-1" x="11.6" y="24.02" width="95.33" height="139.29"/><circle class="cls-1" cx="47.02" cy="12.32" r="2.04"/><line class="cls-2" x1="53.57" y1="12.32" x2="73.56" y2="12.32"/><path class="cls-1" d="M58.94,171.33a8.53,8.53,0,1,1-8.53,8.53,8.54,8.54,0,0,1,8.53-8.53m0-1.74a10.27,10.27,0,1,0,10.27,10.27,10.27,10.27,0,0,0-10.27-10.27Z"/><path class="cls-3" d="M5.36,187.45s2.36,8.45,9.19,8.45h89s7.7.75,8.94-8.45V15s0-8.06-8.45-9.3"/><path class="cls-4" d="M85,68.82v50.7H34.28V68.82H85m2.09-2.09H32.19V121.6H87.07V66.73Z"/><path class="cls-4" d="M78.22,74.8v4.32H73.9V74.8h4.32m2.09-2.09H71.81V81.2H80.3V72.71Z"/><path class="cls-4" d="M44.68,74.8v4.32H40.36V74.8h4.32m2.09-2.09H38.28V81.2h8.49V72.71Z"/><path class="cls-4" d="M44.68,109.64V114H40.36v-4.32h4.32m2.09-2.09H38.28V116h8.49v-8.49Z"/><rect class="cls-4" x="53.62" y="87.23" width="4.74" height="4.98"/><rect class="cls-4" x="60.47" y="87.23" width="4.75" height="4.98"/><rect class="cls-4" x="56.05" y="91.76" width="6.74" height="5.05"/><rect class="cls-4" x="60.47" y="96.85" width="4.75" height="4.98" transform="translate(125.68 198.69) rotate(180)"/><rect class="cls-4" x="53.62" y="96.85" width="4.74" height="4.98" transform="translate(111.99 198.69) rotate(180)"/><rect class="cls-4" x="56.05" y="92.26" width="6.74" height="5.05" transform="translate(118.84 189.56) rotate(-180)"/><rect class="cls-4" x="40.93" y="87.23" width="4.75" height="4.98"/><rect class="cls-4" x="47.78" y="87.23" width="4.74" height="4.98"/><rect class="cls-4" x="43.36" y="91.76" width="6.74" height="5.05"/><rect class="cls-4" x="47.78" y="96.85" width="4.74" height="4.98" transform="translate(100.3 198.69) rotate(180)"/><rect class="cls-4" x="40.93" y="96.85" width="4.75" height="4.98" transform="translate(86.61 198.69) rotate(180)"/><rect class="cls-4" x="43.36" y="92.26" width="6.74" height="5.05" transform="translate(93.45 189.56) rotate(180)"/><rect class="cls-4" x="66.15" y="87.23" width="4.75" height="4.98"/><rect class="cls-4" x="72.99" y="87.23" width="4.74" height="4.98"/><rect class="cls-4" x="68.57" y="91.76" width="6.74" height="5.05"/><rect class="cls-4" x="72.99" y="96.85" width="4.74" height="4.98" transform="translate(150.73 198.69) rotate(180)"/><rect class="cls-4" x="66.15" y="96.85" width="4.75" height="4.98" transform="translate(137.05 198.69) rotate(180)"/><rect class="cls-4" x="68.57" y="92.26" width="6.74" height="5.05" transform="translate(143.89 189.56) rotate(-180)"/><rect class="cls-4" x="53.31" y="108.61" width="4.74" height="3.91" transform="translate(-54.87 166.25) rotate(-90)"/><rect class="cls-4" x="53.31" y="101.76" width="4.75" height="3.91" transform="translate(-48.03 159.41) rotate(-90)"/><rect class="cls-4" x="55.9" y="105.16" width="6.74" height="3.96" transform="translate(-47.87 166.41) rotate(-90)"/><rect class="cls-4" x="60.87" y="101.76" width="4.75" height="3.91" transform="translate(166.96 40.47) rotate(90)"/><rect class="cls-4" x="60.87" y="108.61" width="4.74" height="3.91" transform="translate(173.81 47.32) rotate(90)"/><rect class="cls-4" x="56.29" y="105.16" width="6.74" height="3.96" transform="translate(166.8 47.48) rotate(90)"/><rect class="cls-4" x="53.31" y="83.39" width="4.74" height="3.91" transform="translate(-29.66 141.03) rotate(-90)"/><rect class="cls-4" x="53.31" y="76.54" width="4.75" height="3.91" transform="translate(-22.81 134.19) rotate(-90)"/><rect class="cls-4" x="55.9" y="79.94" width="6.74" height="3.96" transform="translate(-22.65 141.19) rotate(-90)"/><rect class="cls-4" x="60.87" y="76.54" width="4.75" height="3.91" transform="translate(141.75 15.25) rotate(90)"/><rect class="cls-4" x="60.87" y="83.39" width="4.74" height="3.91" transform="translate(148.59 22.1) rotate(90)"/><rect class="cls-4" x="56.29" y="79.94" width="6.74" height="3.96" transform="translate(141.58 22.26) rotate(90)"/><rect class="cls-4" x="73.57" y="109.1" width="6.4" height="6.4"/></g></g></svg>