<?xml version="1.0" encoding="utf-8"?>
<!-- Generator: Adobe Illustrator 21.1.0, SVG Export Plug-In . SVG Version: 6.00 Build 0)  -->
<svg version="1.1" xmlns="http://www.w3.org/2000/svg" xmlns:xlink="http://www.w3.org/1999/xlink" x="0px" y="0px"
	 viewBox="0 0 666.8 74.6" style="enable-background:new 0 0 666.8 74.6;" xml:space="preserve">
<style type="text/css">
	.st0{display:none;}
	.st1{display:inline;fill:none;stroke:#8E8E8E;stroke-miterlimit:10;}
	.st2{display:inline;}
	.st3{fill:none;stroke:#8E8E8E;stroke-miterlimit:10;}
	.st4{fill:none;stroke:#919191;stroke-miterlimit:10;}
	.st5{enable-background:new    ;}
	.st6{fill:#919191;}
	.st7{display:inline;fill:none;stroke:#919191;stroke-miterlimit:10;}
	.st8{display:inline;fill-rule:evenodd;clip-rule:evenodd;fill:#08FFF8;}
	.st9{fill:none;stroke:#FFFFFF;stroke-width:2;stroke-miterlimit:10;}
	.st10{fill:#FFFFFF;}
	.st11{fill:none;stroke:#FFFFFF;stroke-width:2;stroke-miterlimit:10;stroke-dasharray:7.6542,7.6542;}
	.st12{fill-rule:evenodd;clip-rule:evenodd;fill:none;stroke:#FFFFFF;stroke-width:2;stroke-miterlimit:10;}
</style>
<g id="レイヤー_1" class="st0">
	<g id="nav_x5F_about_x5F_icon">
		<path class="st1" d="M368,128.4h-17.7c-2.8,0-5-2.2-5-5v-17.7c0-2.8,2.2-5,5-5H368c2.8,0,5,2.2,5,5v17.7
			C373,126.1,370.8,128.4,368,128.4z"/>
	</g>
	<g id="nav_x5F_user_x5F_icon">
		<g class="st2">
			<circle class="st3" cx="359.1" cy="105.4" r="4.7"/>
			<path class="st3" d="M359.2,116c-1.5,0-2.8-0.3-4.1-0.8l-6.3,3.9l1,9.2h18.9l1-9.2l-6.3-3.9C362,115.7,360.6,116,359.2,116z"/>
		</g>
	</g>
	<g id="nav_x5F_prapoly_x5F_icon">
		<g class="st2">
			<line class="st3" x1="345.2" y1="103.6" x2="373" y2="103.6"/>
			<line class="st3" x1="345.2" y1="114.5" x2="361.6" y2="114.5"/>
			<line class="st3" x1="345.2" y1="125.5" x2="373" y2="125.5"/>
		</g>
	</g>
	<g id="nav_x5F_link_x5F_icon">
		<g class="st2">
			<rect x="345.5" y="102.8" class="st3" width="22.1" height="17.7"/>
			<polyline class="st3" points="372.9,107 372.9,126.2 349.9,126.2 			"/>
		</g>
	</g>
	<g id="menu_x5F_buy_x5F_tk">
		<g class="st2">
			<g>
				<g>
					<polygon class="st4" points="383.9,134 339,134 339,117.7 342.1,114.6 339,114.6 339,108.4 383.9,108.4 					"/>
				</g>
				<g>
					<g>
						<line class="st4" x1="350.8" y1="128" x2="350.8" y2="132"/>
					</g>
					<g>
						<line class="st4" x1="350.8" y1="122.1" x2="350.8" y2="126.1"/>
					</g>
					<g>
						<line class="st4" x1="350.8" y1="116.2" x2="350.8" y2="120.2"/>
					</g>
					<g>
						<line class="st4" x1="350.8" y1="110.4" x2="350.8" y2="114.4"/>
					</g>
				</g>
			</g>
			<g>
				<g>
					<polyline class="st4" points="376.8,104.1 376.8,98.7 331.9,98.7 331.9,104.9 335.1,104.9 331.9,108 331.9,121.5 335.3,121.5 
											"/>
				</g>
			</g>
		</g>
	</g>
	<g id="menu_x5F_point">
		
			<text transform="matrix(1 0 0 1 352.2719 124.2395)" style="display:inline;fill:#919191; font-family:'HiraKakuProN-W3-83pv-RKSJ-H'; font-size:20px; letter-spacing:2;">P</text>
		<circle class="st7" cx="358.9" cy="116" r="20.2"/>
	</g>
	<rect x="-53.9" y="-245.9" class="st8" width="840.2" height="759.7"/>
</g>
<g id="レイヤー_2" class="st0">
	<g class="st2">
		<g>
			<circle class="st9" cx="201.9" cy="-122.7" r="12.1"/>
			<path class="st9" d="M202-95.7c-3.7,0-7.3-0.8-10.5-2.1l-16.3,10.1l2.6,23.7l48.3,0l2.6-23.7l-16.3-10.1
				C209.3-96.4,205.7-95.7,202-95.7z"/>
		</g>
		<g>
			<circle class="st9" cx="438.4" cy="-122.7" r="12.1"/>
			<path class="st9" d="M438.4-95.7c-3.7,0-7.3-0.8-10.5-2.1l-16.3,10.1l2.6,23.7l48.3,0l2.6-23.7l-16.3-10.1
				C445.6-96.4,442.1-95.7,438.4-95.7z"/>
		</g>
		<rect x="132.1" y="-34.8" class="st9" width="133.4" height="266.9"/>
		<rect x="370.2" y="60.1" class="st9" width="133.4" height="172"/>
		<g>
			<path class="st10" d="M29.9-161.3c0.2-1.4,0.3-2.7,0.3-4.5v-3.9h-5.9c-1.8,0-2.8,0.1-4.2,0.3v-3c1.4,0.2,2.4,0.3,4.2,0.3h5.9
				v-1.9l-1.6-2.4h-4.3c-1.8,0-2.8,0.1-4.2,0.3v-3c1.4,0.2,2.4,0.3,4.2,0.3h2.8l-6.2-9.5c-1.2-1.8-1.8-2.7-2.4-3.5h4.3
				c0.3,0.9,0.7,1.7,2,3.7l7,11.3l7-11.3c1.2-1.9,1.6-2.8,1.9-3.7H45c-0.6,0.7-1.4,1.8-2.5,3.5l-6.2,9.5h2.8c1.8,0,2.8-0.1,4.2-0.3
				v3c-1.4-0.2-2.4-0.3-4.2-0.3h-4.3l-1.6,2.4v1.9h5.9c1.8,0,2.8-0.1,4.2-0.3v3c-1.4-0.2-2.4-0.3-4.2-0.3h-5.9v3.9
				c0,2,0.1,3,0.3,4.5H29.9z"/>
		</g>
		<line class="st9" x1="31.8" y1="-92.9" x2="0" y2="-92.9"/>
		<line class="st9" x1="31.8" y1="0.7" x2="0" y2="0.7"/>
		<line class="st9" x1="31.8" y1="94.2" x2="0" y2="94.2"/>
		<line class="st9" x1="31.8" y1="187.8" x2="0" y2="187.8"/>
		<line class="st9" x1="430.3" y1="-26.5" x2="430.3" y2="46.3"/>
		<line class="st9" x1="443.7" y1="-26.5" x2="443.7" y2="46.3"/>
		<polyline class="st9" points="451.6,38 436.9,52.7 422.1,38 		"/>
		<g>
			<path class="st10" d="M524.6,17.8c0-1.4-0.1-2.4-0.3-3.8c1.2,0.1,2.1,0.1,3.7,0.1h5.6c7.4,0,11.7,4.5,11.7,12.5
				c0,4.2-1.3,7.6-3.6,9.9c-2,2-4.8,3-8.1,3H528c-1.6,0-2.5,0-3.7,0.1c0.2-1.3,0.3-2.3,0.3-4V17.8z M533.5,37.1
				c2.6,0,4.7-0.8,6.2-2.4c1.8-1.9,2.8-4.7,2.8-8.1c0-3.5-0.9-6.1-2.6-7.9c-1.5-1.5-3.5-2.3-6.3-2.3h-6.5v20.7H533.5z"/>
			<path class="st10" d="M552.6,14.1v3h-3.2v-3H552.6z M552.4,21.4c-0.2,1.2-0.2,2.1-0.2,3.8v10.4c0,1.5,0.1,2.5,0.2,3.8h-3
				c0.2-1.4,0.2-2.4,0.2-3.8V25.2c0-1.6-0.1-2.6-0.2-3.8H552.4z"/>
			<path class="st10" d="M559.1,34.1c0.2,1.2,0.5,1.8,1.2,2.4c0.8,0.8,2.2,1.2,3.9,1.2c2.9,0,4.7-1.2,4.7-3.2c0-0.9-0.3-1.6-1-2.1
				c-0.8-0.5-1.5-0.7-3.9-1.2c-2.7-0.6-3.8-1-4.9-1.7c-1.2-0.8-1.8-2-1.8-3.5c0-1.2,0.5-2.3,1.4-3.2c1.2-1.1,3-1.7,5.2-1.7
				c2.3,0,4,0.5,5.2,1.6c0.9,0.7,1.3,1.5,1.8,3l-2.6,0.4c-0.2-0.9-0.4-1.3-0.8-1.8c-0.8-0.8-2-1.3-3.5-1.3c-2.4,0-4.2,1.2-4.2,3
				c0,0.8,0.4,1.4,1.1,1.8c0.8,0.4,1.6,0.7,3.7,1.1c3.2,0.7,4.3,1.1,5.3,1.9c1,0.8,1.6,2.1,1.6,3.5c0,3.3-2.8,5.4-7.4,5.4
				c-3,0-5.4-0.9-6.6-2.6c-0.5-0.7-0.7-1.3-1.1-2.6L559.1,34.1z"/>
			<path class="st10" d="M588,26.9c-1-2.6-2.6-3.8-5-3.8c-3.7,0-6,2.9-6,7.3c0,4.4,2.4,7.2,6.1,7.2c1.9,0,3.5-0.8,4.3-2.1
				c0.3-0.5,0.5-0.9,0.7-1.7l2.5,0.7c-0.5,1.2-0.8,1.8-1.4,2.6c-1.5,1.8-3.6,2.8-6.3,2.8c-5.2,0-8.6-3.6-8.6-9.3
				c0-5.8,3.3-9.5,8.4-9.5c2.8,0,5,1.1,6.4,3.1c0.5,0.6,0.8,1.2,1.2,2.1L588,26.9z"/>
			<path class="st10" d="M593.6,30.4c0-5.8,3.5-9.4,8.9-9.4c5.4,0,8.9,3.7,8.9,9.4c0,5.7-3.5,9.4-8.8,9.4
				C597.1,39.9,593.6,36.2,593.6,30.4z M596.2,30.4c0,4.5,2.4,7.3,6.3,7.3c3.9,0,6.3-2.8,6.3-7.3c0-4.5-2.4-7.3-6.2-7.3
				C598.7,23.1,596.2,25.9,596.2,30.4z"/>
			<path class="st10" d="M628.4,37.2c0-0.4,0-0.6,0.1-1.5c-1.7,2.7-3.7,4-6.7,4c-2.4,0-4.3-0.9-5.3-2.5c-0.6-1-0.9-2.3-0.9-3.9v-8.2
				c0-1.5-0.1-2.7-0.2-3.7h3c-0.2,1.2-0.2,2.3-0.2,3.8V33c0,3,1.4,4.6,4,4.6c1.9,0,3.5-0.8,4.8-2.6c0.9-1.2,1.2-2,1.5-3.3v-6.4
				c0-1.4-0.1-2.6-0.2-3.8h3c-0.2,1.2-0.2,2.2-0.2,3.8v10.4c0,1.5,0.1,2.4,0.3,3.8h-2.8V37.2z"/>
			<path class="st10" d="M635.9,39.4c0.2-1.3,0.3-2.2,0.3-3.8V25.2c0-1.5-0.1-2.4-0.3-3.8h2.8v2.3c0,0.4,0,0.7-0.1,1.4
				c1.6-2.7,3.7-4,6.7-4c2.4,0,4.3,0.9,5.3,2.5c0.6,1,0.9,2.2,0.9,3.8v8.2c0,1.7,0.1,2.6,0.2,3.7h-3c0.2-1.3,0.2-2.3,0.2-3.8v-7.8
				c0-3-1.4-4.6-4.1-4.6c-1.9,0-3.4,0.8-4.8,2.6c-0.9,1.1-1.3,2-1.5,3.3v6.4c0,1.5,0.1,2.5,0.2,3.8H635.9z"/>
			<path class="st10" d="M661.6,16.5c-0.2,1.1-0.2,2.3-0.2,3.7v1.3h1.6c1.5,0,2.2,0,3.4-0.2v2.5c-1.1-0.2-1.9-0.2-3.4-0.2h-1.6v11.6
				c0,1,0.1,1.5,0.4,1.8c0.4,0.4,0.9,0.6,1.6,0.6c0.9,0,1.5-0.2,2.6-0.9l0.7,2.3c-1.4,0.6-2.4,0.8-3.8,0.8c-1.5,0-2.6-0.4-3.3-1
				c-0.7-0.7-0.9-1.6-0.9-3.2V23.6h-1.3c-1.1,0-1.9,0.1-3,0.2v-2.5c0.9,0.2,1.6,0.2,3,0.2h1.3v-1.3c0-1.3-0.1-2.6-0.2-3.7H661.6z"/>
		</g>
		<line class="st9" x1="31.8" y1="-132.7" x2="31.8" y2="232"/>
		<line class="st9" x1="614" y1="232" x2="31.8" y2="232"/>
		<line class="st11" x1="504.6" y1="-34.8" x2="265.5" y2="-34.8"/>
		<polygon class="st12" points="477.6,-134.1 481.5,-126.2 490.2,-124.9 483.9,-118.8 485.4,-110.2 477.6,-114.2 469.8,-110.2 
			471.3,-118.8 465,-124.9 473.7,-126.2 		"/>
		<g>
			<g>
				<polygon class="st12" points="635.3,111.6 553.7,111.6 553.7,82 559.3,76.3 553.7,76.3 553.7,65.1 635.3,65.1 				"/>
			</g>
			<g>
				<line class="st9" x1="575.1" y1="101" x2="575.1" y2="108.3"/>
			</g>
			<g>
				<line class="st9" x1="575.1" y1="90.1" x2="575.1" y2="97.4"/>
			</g>
			<g>
				<line class="st9" x1="575.1" y1="79.3" x2="575.1" y2="86.5"/>
			</g>
			<g>
				<line class="st9" x1="575.1" y1="68.4" x2="575.1" y2="75.7"/>
			</g>
		</g>
	</g>
</g>
<g id="レイヤー_3" class="st0">
	<g class="st2">
		<g>
			<g>
				<path class="st9" d="M380.9,154.9c-0.1-2.4-2.2-6-4.3-6.8c-2.4-1-5.9-1.1-8.6,1c-1.2,0.9-1.2,0.9-4.1,4.3
					c-0.3-5.5-2.3-11.8-8-11.8c-5.6,0-8.3,1.9-10.4,5.1c-0.2-3.6-1.8-10.6-7.3-10.6c-5.9,0-8.2,1.6-10.7,5.2c0-0.9,0-4.8,0-6.4
					c0-9.9,0.2-19.8-0.1-29.8c-0.1-2.5-1.3-5.9-3.1-7.1c-2.1-1.4-6.2-1.9-8.1-0.7c-2.3,1.5-4.4,5.1-4.4,7.9
					c-0.3,22.5-0.2,45-0.2,67.5c0,1.7,0,4.3-0.1,6c-0.5,0.1-1.1-0.8-1.6-0.7c-0.7-1.1-1.5-2.2-2.2-3.4c-2.5-4.5-4.9-10-7.5-14.3
					c-2.6-4.3-4.3-7.7-9.3-7.7c-4.5,0-8.2,3.1-7.4,7.7c0.2,1.5,0.7,2.9,1.3,4.3c5,11.3,9.7,22.8,15.2,33.9
					c3.7,7.3,8.2,14.4,13.3,20.8c1.3,1.6,2.8,2.9,4.3,4.1c6.7,6.8,16.2,11.1,26.8,11.1c15.7,0,29.2-9.4,34.3-22.6
					c1.3-2.8,2.1-6,2.2-9.7C381.5,186.3,381.2,170.6,380.9,154.9z"/>
			</g>
			<g>
				<path class="st10" d="M300.5,69c-1.6,0-2.7,0-4,0.1c0.3-1.5,0.3-2.4,0.3-4.5V45.2c0-1.6-0.1-2.5-0.3-3.8c1.1,0.1,1.8,0.1,4,0.1
					h7.7c5.3,0,8.2,2.4,8.2,6.7c0,2.1-0.7,3.7-2,4.9c-0.8,0.7-1.4,1-2.9,1.5c1.7,0.3,2.5,0.7,3.5,1.5c1.5,1.3,2.2,3.1,2.2,5.4
					c0,4.9-3.2,7.6-8.7,7.6H300.5z M308.2,53.2c3.4,0,5.4-1.8,5.4-4.8c0-3-1.8-4.5-5.4-4.5h-8.5v9.4H308.2z M299.6,66.5h8.7
					c4,0,6.1-1.9,6.1-5.4c0-3.6-2.1-5.4-6.1-5.4h-8.7V66.5z"/>
				<path class="st10" d="M340.7,66.6c0-0.4,0-0.7,0.1-1.6c-1.8,3-4.1,4.3-7.3,4.3c-2.6,0-4.6-0.9-5.8-2.7c-0.7-1.1-1-2.5-1-4.2v-9
					c0-1.6-0.1-2.9-0.3-4.1h3.3c-0.2,1.3-0.3,2.5-0.3,4.1V62c0,3.2,1.6,5,4.4,5c2.1,0,3.8-0.9,5.2-2.9c0.9-1.3,1.3-2.2,1.7-3.6v-7
					c0-1.6-0.1-2.8-0.3-4.1h3.2c-0.2,1.3-0.3,2.4-0.3,4.1v11.4c0,1.6,0.1,2.6,0.3,4.1h-3V66.6z"/>
				<path class="st10" d="M353,53.7c-1.6-3.6-1.6-3.6-2-4.2h3.6c0.2,1,0.7,2.5,1.2,3.8l5.3,12.2l4.7-12.2c0.7-1.9,1.1-2.8,1.2-3.8
					h3.4c-0.2,0.5-0.8,2-1.8,4.2l-8.1,19.8c-0.9,2.3-2.5,3.4-5.1,3.4c-0.8,0-1.6-0.1-3-0.4l0.8-2.7c1,0.5,1.5,0.6,2.2,0.6
					c1.2,0,2.1-0.7,2.7-2l1.7-4L353,53.7z"/>
			</g>
			<polyline class="st9" points="293,113 120,113 120,9.3 544.5,9.3 544.5,113 346,113 			"/>
		</g>
		<g>
			<g>
				<circle class="st9" cx="431.9" cy="-81" r="24.3"/>
				<polyline class="st9" points="417.9,-79 426.3,-72.7 445.9,-90.7 				"/>
			</g>
			<g>
				<g>
					<g>
						<polyline class="st12" points="444.1,-115.7 444.1,-192.5 208.3,-192.5 208.3,-158.7 225.2,-158.7 208.3,-141.9 208.3,-68.8 
							397.9,-68.8 						"/>
					</g>
					<g>
						<line class="st9" x1="272.1" y1="-192.7" x2="272.1" y2="-181.5"/>
						<line class="st9" x1="272.1" y1="-170.2" x2="272.1" y2="-159"/>
						<line class="st9" x1="272.1" y1="-147.7" x2="272.1" y2="-136.5"/>
						<line class="st9" x1="272.1" y1="-125.2" x2="272.1" y2="-114"/>
						<line class="st9" x1="272.1" y1="-102.8" x2="272.1" y2="-91.5"/>
						<line class="st9" x1="272.1" y1="-80.3" x2="272.1" y2="-69"/>
					</g>
				</g>
			</g>
		</g>
	</g>
</g>
<g id="レイヤー_4" class="st0">
	<g class="st2">
		<g>
			<g>
				<g>
					<path class="st9" d="M74.9,92.2H9.6c-3.3,0-6-2.7-6-6V-37.1c0-3.3,2.7-6,6-6h65.4c3.3,0,6,2.7,6,6V86.2
						C80.9,89.5,78.2,92.2,74.9,92.2z"/>
					<rect x="11.2" y="-29.1" class="st9" width="62" height="102.5"/>
					<circle class="st9" cx="42.2" cy="82.4" r="5.5"/>
				</g>
				<line class="st9" x1="47.3" y1="-35.8" x2="37.2" y2="-35.8"/>
			</g>
			<g>
				<circle class="st9" cx="144.1" cy="-64" r="16.9"/>
				<path class="st9" d="M158.7-29.6c-4.5,1.9-9.4,3-14.6,3c-5,0-9.8-1-14.2-2.8l-22.7,14.1l15.9,145.1h42.5l15.9-145.1L158.7-29.6z
					"/>
			</g>
			<g>
				<path class="st9" d="M640,42.8l7-58.2l-23-14.3c-4.5,1.9-9.4,3-14.6,3c-5,0-9.8-1-14.2-2.8l-22.7,14.1l7,58.2"/>
				<circle class="st9" cx="609.4" cy="-64" r="16.9"/>
			</g>
		</g>
		<g>
			<g>
				<polygon class="st9" points="376.5,-32.9 365.6,-10.7 354.7,-32.9 328.4,-16.8 334.7,19 396.4,19 402.8,-16.8 				"/>
				<circle class="st9" cx="365.7" cy="-60.1" r="16.9"/>
			</g>
			<rect x="300.1" y="19" class="st9" width="130.9" height="110.8"/>
			<rect x="375.3" y="-9.5" class="st9" width="15.4" height="5.8"/>
		</g>
		<g>
			<path class="st9" d="M650.3,57.5h7.6v-87c0-14-8.6-25.5-22.6-25.5h-2.1"/>
			<line class="st9" x1="601.8" y1="57.5" x2="617.7" y2="57.5"/>
			<path class="st9" d="M584.2-55H582c-12.3,0-22.3,10-22.3,22.3v90.2h10.4"/>
			<path class="st9" d="M574.2,86.3h-13.8c-4.4,0-8-3.6-8-8V65.5c0-4.4,3.6-8,8-8h9.8"/>
			<line class="st9" x1="619.9" y1="86.3" x2="600.1" y2="86.3"/>
			<path class="st9" d="M650.3,57.5h7c4.4,0,8,3.6,8,8v12.8c0,4.4-3.6,8-8,8h-11.9"/>
			<line class="st9" x1="600.1" y1="57.5" x2="619.9" y2="57.5"/>
			<polygon class="st9" points="595.3,124.4 584.2,124.4 573,42.8 595.3,42.8 			"/>
			<polygon class="st9" points="595.3,124.4 584.2,124.4 573,42.8 595.3,42.8 			"/>
			<polygon class="st9" points="624.2,124.4 635.3,124.4 646.5,42.8 624.2,42.8 			"/>
		</g>
		<g>
			<g>
				<line class="st9" x1="218.8" y1="15.2" x2="284.2" y2="15.2"/>
				<line class="st9" x1="447" y1="15.2" x2="503.9" y2="15.2"/>
				<line class="st9" x1="218.8" y1="32.2" x2="284.2" y2="32.2"/>
				<line class="st9" x1="447" y1="32.2" x2="503.9" y2="32.2"/>
			</g>
			<polyline class="st9" points="491.5,2.9 512.3,23.7 491.5,44.5 			"/>
		</g>
		<line class="st9" x1="300.1" y1="37.8" x2="431" y2="37.8"/>
	</g>
</g>
<g id="レイヤー_5" class="st0">
	<g class="st2">
		<g>
			<g>
				<path class="st9" d="M430.9,235.3H230.5c-12.6,0-22.9-10.3-22.9-22.9v-384.6c0-12.6,10.3-22.9,22.9-22.9h200.4
					c12.6,0,22.9,10.3,22.9,22.9v384.6C453.7,225,443.5,235.3,430.9,235.3z"/>
				<rect x="222" y="-143.6" class="st9" width="217.4" height="325.4"/>
				<circle class="st9" cx="330.7" cy="209.4" r="17.4"/>
			</g>
			<line class="st9" x1="346.8" y1="-166.8" x2="314.5" y2="-166.8"/>
		</g>
		<g>
			<g>
				<g>
					<path class="st10" d="M332.8,21.8c-0.6-0.5-1.2-0.9-1.9-1.1c-0.6-0.3-1.3-0.4-1.9-0.4c-0.6,0-1.2,0.2-1.7,0.6
						c-0.5,0.4-0.8,0.9-0.8,1.7c0,1,0.8,1.8,2.3,2.4c1.6,0.6,2.7,1.2,3.5,1.8c0.8,0.6,1.1,2,1.1,4.3c0,2-0.6,3.4-1.7,4.4
						c-1.1,1-2.5,1.5-4.1,1.5c-0.8,0-1.5-0.1-2.3-0.3c-0.7-0.2-1.5-0.4-2.3-0.8v-4.3c0.7,0.3,1.4,0.6,2.3,0.9
						c0.8,0.3,1.6,0.5,2.2,0.5c0.9,0,1.6-0.2,1.9-0.6c0.4-0.4,0.6-0.9,0.6-1.5c0-0.8-0.8-1.5-2.3-2.2c-1.6-0.6-2.8-1.3-3.6-2
						c-0.8-0.7-1.3-2.1-1.3-4.1c0-1.7,0.5-3.1,1.6-4.2c1.1-1.2,2.5-1.7,4.1-1.7c0.8,0,1.6,0,2.2,0.2c0.7,0.1,1.3,0.4,1.9,0.7V21.8z"
						/>
					<path class="st10" d="M347.9,30.1c0,1.8-0.6,3.3-1.8,4.8c-1.2,1.4-2.7,2.1-4.5,2.1c-1.5,0-2.9-0.6-4.2-1.9
						c-1.3-1.3-1.9-2.8-1.9-4.5V16.8h3.5v13.5c0,0.7,0.3,1.4,0.8,1.9c0.5,0.6,1.1,0.9,1.8,0.9c0.7,0,1.4-0.3,1.9-0.9
						c0.5-0.6,0.7-1.2,0.7-1.9V16.8h3.7V30.1z"/>
					<path class="st10" d="M363.1,34.3c0,0.7-0.3,1.4-0.7,1.9c-0.5,0.5-1,0.8-1.6,0.8c-0.5,0-0.9-0.1-1.3-0.4
						c-0.4-0.3-0.7-0.6-0.9-1.1L354.1,23H354v13.7h-3.2V19.4c0-0.7,0.2-1.4,0.6-2c0.4-0.6,0.9-0.9,1.6-0.9c0.4,0,0.8,0.1,1.2,0.5
						c0.4,0.3,0.7,0.7,0.9,1.2l4.6,12.4h0.2V16.8h3.2V34.3z"/>
					<path class="st10" d="M375.4,21.8c-0.6-0.5-1.2-0.9-1.8-1.1c-0.6-0.3-1.3-0.4-1.9-0.4c-0.7,0-1.2,0.2-1.8,0.6
						c-0.5,0.4-0.8,0.9-0.8,1.7c0,1,0.8,1.8,2.3,2.4c1.6,0.6,2.7,1.2,3.5,1.8c0.7,0.6,1.1,2,1.1,4.3c0,2-0.5,3.4-1.6,4.4
						c-1.1,1-2.5,1.5-4.1,1.5c-0.8,0-1.5-0.1-2.3-0.3c-0.7-0.2-1.5-0.4-2.3-0.8v-4.3c0.7,0.3,1.4,0.6,2.3,0.9
						c0.8,0.3,1.6,0.5,2.2,0.5c0.9,0,1.5-0.2,1.9-0.6c0.4-0.4,0.6-0.9,0.6-1.5c0-0.8-0.8-1.5-2.4-2.2c-1.6-0.6-2.8-1.3-3.6-2
						c-0.9-0.7-1.3-2.1-1.3-4.1c0-1.7,0.5-3.1,1.6-4.2c1.1-1.2,2.5-1.7,4.2-1.7c0.8,0,1.6,0,2.2,0.2c0.6,0.1,1.3,0.4,1.9,0.7V21.8z"
						/>
					<path class="st10" d="M390.7,36.7h-3.7v-8.3h-5.3v8.3h-3.6V16.8h3.6v7.5h5.3v-7.5h3.7V36.7z"/>
					<path class="st10" d="M397.4,36.8h-3.6V16.9h3.6V36.8z"/>
					<path class="st10" d="M412.6,34.3c0,0.7-0.2,1.4-0.7,1.9c-0.5,0.5-1,0.8-1.6,0.8c-0.4,0-0.9-0.1-1.3-0.4
						c-0.4-0.3-0.7-0.6-0.9-1.1L403.6,23h-0.1v13.7h-3.2V19.4c0-0.7,0.2-1.4,0.6-2c0.4-0.6,0.9-0.9,1.6-0.9c0.4,0,0.8,0.1,1.3,0.5
						c0.4,0.3,0.7,0.7,0.9,1.2l4.6,12.4h0.2V16.8h3.2V34.3z"/>
					<path class="st10" d="M423.7,36.7h-6c-0.8,0-1.4-0.3-1.9-1c-0.5-0.7-0.7-1.4-0.7-2.2V20.2c0-1,0.2-1.8,0.6-2.5
						c0.4-0.6,0.9-1,1.6-1h6.4v3.9h-5.1v3.6h4.8v3.9h-4.8v4.6h5.1V36.7z"/>
				</g>
				<g>
					<g>
						<path class="st10" d="M249.1,20.7c-2.3,0-4.1,0.5-5.4,1.5c-1.3,1.1-2,2.5-2,4.5c0,2.1,0.7,3.7,2.1,4.7c1.4,1,3.1,1.4,5.2,1.4
							v4c-0.2,0-0.4,0-0.7,0.1c-0.3,0-0.5,0-0.8,0c-2.5,0-4.7-0.9-6.8-2.7c-2-1.8-3-4.2-3-7.3c0-3.1,1-5.5,2.9-7.3
							c2-1.8,4.3-2.7,6.9-2.7c0.4,0,0.7,0,0.9,0c0.2,0,0.4,0,0.7,0V20.7z"/>
						<path class="st10" d="M255.7,36.8h-3.9V16.9h3.9V36.8z"/>
						<path class="st10" d="M272.2,34.2c0,0.8-0.3,1.4-0.8,1.9c-0.5,0.5-1.1,0.8-1.8,0.8c-0.5,0-0.9-0.1-1.4-0.4
							c-0.5-0.3-0.8-0.6-1-1.2L262.3,23l-0.2,0v13.7h-3.4V19.4c0-0.7,0.2-1.4,0.7-2c0.5-0.6,1-0.9,1.7-0.9c0.5,0,0.9,0.2,1.4,0.5
							c0.5,0.3,0.8,0.7,1,1.2l5,12.4h0.2V16.8h3.5V34.2z"/>
						<path class="st10" d="M284.4,36.7h-6.5c-0.9,0-1.6-0.3-2.1-1c-0.5-0.7-0.8-1.4-0.8-2.2V20.2c0-1,0.2-1.8,0.7-2.5
							c0.4-0.7,1-1,1.8-1h6.9v3.9h-5.6v3.6h5.3v3.9h-5.3v4.5h5.6V36.7z"/>
						<path class="st10" d="M302.5,36.7h-2.9l0-14.1l-2.6,12c-0.2,0.7-0.4,1.2-0.7,1.6c-0.3,0.4-0.7,0.6-1.3,0.6
							c-0.6,0-1-0.2-1.3-0.6c-0.3-0.4-0.5-1-0.7-1.7l-2.9-11.7l0,14h-3V19.4c0-0.8,0.2-1.5,0.7-2c0.5-0.5,1-0.7,1.7-0.7
							c0.6,0,1.1,0.2,1.5,0.5c0.4,0.4,0.7,0.9,0.9,1.6l3.1,12.8l2.8-13.5c0.1-0.4,0.4-0.8,0.8-1.2c0.4-0.3,0.9-0.5,1.3-0.5
							c0.5,0,1,0.2,1.7,0.7c0.6,0.5,1,1.2,1,2.2V36.7z"/>
						<path class="st10" d="M309.7,29.8l1.8-8.6l1.6,8.6H309.7z M314.3,19.2c-0.2-0.8-0.6-1.4-1.1-1.9c-0.5-0.5-1.2-0.8-1.9-0.8
							c-0.6,0-1.2,0.2-1.6,0.7c-0.5,0.5-0.8,1.1-1,1.7l-5,17.7h4l1-3.8h5.4l1,3.8h4L314.3,19.2z"/>
					</g>
				</g>
			</g>
		</g>
	</g>
</g>
<g id="レイヤー_6">
	<g>
		<g>
			<g>
				<path class="st10" d="M340.8,19.6c-2.2-1.7-4.4-3-6.6-4c-2.2-0.9-4.6-1.4-6.9-1.4c-2.3,0-4.4,0.6-6.2,2.2
					c-1.9,1.4-2.8,3.3-2.8,5.9c0,3.5,2.8,6.4,8.4,8.6c5.6,2,9.7,4.3,12.4,6.5c2.7,2.2,4,7.2,4,15.2c0,7-2,12.3-5.9,15.9
					c-4,3.5-8.8,5.3-14.6,5.3c-2.7,0-5.4-0.4-8.1-1.1c-2.6-0.5-5.4-1.5-8.2-2.7V54.7c2.4,1.2,5.1,2.2,8.1,3.3
					c2.9,1.1,5.6,1.7,7.8,1.7c3.2,0,5.5-0.8,6.9-2.2c1.4-1.5,2.2-3.3,2.2-5.5c0-2.9-2.8-5.5-8.4-7.8c-5.6-2.3-9.9-4.7-13-7.1
					c-3-2.5-4.5-7.5-4.5-14.8c0-6.1,1.9-11,5.8-15.2c3.9-4.1,8.8-6.1,14.8-6.1c2.9,0,5.6,0.2,7.8,0.6c2.3,0.5,4.6,1.4,7,2.6V19.6z"
					/>
				<path class="st10" d="M394.9,49.5c0,6.4-2.2,12-6.5,17c-4.4,4.9-9.7,7.5-16.1,7.5c-5.4,0-10.3-2.3-14.9-6.9
					c-4.6-4.6-6.8-9.9-6.8-16V1.9h12.6v48.2c0,2.6,0.9,4.9,2.8,6.8c1.9,2,4,3.1,6.4,3.1c2.6,0,4.9-1.1,6.7-3.1
					c1.7-2,2.6-4.3,2.6-6.7V1.9h13.2V49.5z"/>
				<path class="st10" d="M449.4,64.3c0,2.6-0.9,5.1-2.6,6.8c-1.8,1.9-3.7,2.9-5.8,2.9c-1.6,0-3.1-0.5-4.6-1.4c-1.5-1-2.6-2.3-3.2-4
					L417,24.1h-0.5v48.9h-11.3V11.3c0-2.5,0.8-4.9,2.2-7C409,2,410.8,1,413.1,1c1.5,0,2.9,0.5,4.5,1.7c1.5,1.1,2.6,2.6,3.2,4.3
					l16.4,44.2h0.8V2h11.5V64.3z"/>
				<path class="st10" d="M493.1,19.6c-2.1-1.7-4.3-3-6.5-4c-2.3-0.9-4.6-1.4-6.9-1.4c-2.3,0-4.4,0.6-6.3,2.2
					c-1.8,1.4-2.7,3.3-2.7,5.9c0,3.5,2.7,6.4,8.4,8.6c5.6,2,9.7,4.3,12.4,6.5c2.7,2.2,4,7.2,4,15.2c0,7-2,12.3-5.9,15.9
					c-4,3.5-8.9,5.3-14.7,5.3c-2.7,0-5.5-0.4-8.1-1.1c-2.6-0.5-5.4-1.5-8.1-2.7V54.7c2.4,1.2,5.1,2.2,8.1,3.3
					c2.9,1.1,5.6,1.7,7.9,1.7c3.2,0,5.5-0.8,6.9-2.2c1.5-1.5,2.2-3.3,2.2-5.5c0-2.9-2.8-5.5-8.5-7.8c-5.6-2.3-9.9-4.7-12.9-7.1
					c-3-2.5-4.6-7.5-4.6-14.8c0-6.1,1.9-11,5.8-15.2c3.9-4.1,8.9-6.1,14.8-6.1c3,0,5.6,0.2,7.8,0.6c2.3,0.5,4.6,1.4,6.9,2.6V19.6z"
					/>
				<path class="st10" d="M548,73.1H535V43.4h-18.8v29.7h-13V1.9h13v26.9H535V1.9H548V73.1z"/>
				<path class="st10" d="M571.8,73.3h-12.9V2.3h12.9V73.3z"/>
				<path class="st10" d="M626.3,64.3c0,2.6-0.9,5.1-2.6,6.8c-1.8,1.9-3.7,2.9-5.8,2.9c-1.6,0-3.1-0.5-4.6-1.4c-1.5-1-2.6-2.3-3.3-4
					l-16-44.4h-0.5v48.9h-11.4V11.3c0-2.5,0.8-4.9,2.3-7C585.9,2,587.8,1,590,1c1.4,0,2.9,0.5,4.5,1.7c1.5,1.1,2.6,2.6,3.2,4.3
					l16.4,44.2h0.8V2h11.4V64.3z"/>
				<path class="st10" d="M665.8,73.1h-21.3c-2.8,0-5-1.1-6.8-3.5c-1.7-2.4-2.6-5.1-2.6-8V14.1c0-3.5,0.8-6.5,2.2-8.8
					c1.4-2.3,3.3-3.4,5.6-3.4h22.9v14h-18.1v12.7h17.2v13.9h-17.2v16.3h18.1V73.1z"/>
			</g>
			<g>
				<g>
					<path class="st10" d="M41.6,15.7c-8.1,0-14.5,1.9-19.3,5.5c-4.7,3.8-7,9.1-7,15.9c0,7.7,2.4,13.2,7.3,16.7
						c5,3.4,11.1,5.1,18.5,5.1V73c-0.7,0.1-1.5,0.1-2.5,0.2c-1,0.1-1.8,0.1-2.7,0.1c-8.9,0-16.9-3.3-24.2-9.7
						C4.6,57.2,0.9,48.6,0.9,37.7c0-10.9,3.5-19.7,10.5-26.2c7-6.5,15.2-9.8,24.7-9.8c1.3,0,2.4,0,3.2,0c0.8,0,1.6,0,2.4,0V15.7z"/>
					<path class="st10" d="M65.3,73.4H51.2V2.3h14.1V73.4z"/>
					<path class="st10" d="M124.2,64.2c0,2.8-1,5-2.9,6.9c-1.9,1.9-4,2.7-6.3,2.7c-1.6,0-3.2-0.4-4.9-1.3c-1.7-1-2.8-2.2-3.4-4.2
						L89,24l-0.7,0.1v48.9H76.1V11.3c0-2.6,0.8-4.9,2.4-7C80.2,2.1,82.2,1,84.6,1c1.6,0,3.2,0.6,4.9,1.7c1.7,1.1,2.9,2.6,3.6,4.3
						l17.8,44.3h0.9V2h12.4V64.2z"/>
					<path class="st10" d="M168,73.1h-23.1c-3.1,0-5.6-1.1-7.4-3.5c-1.9-2.4-2.8-5-2.8-8V14.1c0-3.5,0.8-6.5,2.4-8.8
						c1.6-2.4,3.6-3.5,6.3-3.5H168v14h-19.9v12.8H167v13.9h-18.8v16.2H168V73.1z"/>
					<path class="st10" d="M232.6,73.1H222L222,22.6l-9.3,43c-0.5,2.5-1.4,4.4-2.4,5.8c-1,1.4-2.5,2.1-4.5,2.1
						c-2.1,0-3.7-0.7-4.7-2.2c-1-1.4-1.9-3.6-2.5-6.2l-10.3-41.9l0,49.9h-10.7V11.3c0-2.9,0.9-5.4,2.5-7.1c1.7-1.7,3.6-2.6,6-2.6
						c2.2,0,4,0.6,5.3,1.9c1.4,1.3,2.4,3.2,3.1,5.7L205.6,55l10.1-48.2c0.4-1.6,1.3-2.9,2.8-4.1c1.5-1,3.1-1.7,4.8-1.7
						c1.7,0,3.6,0.8,5.9,2.7c2.3,1.7,3.4,4.4,3.4,7.9V73.1z"/>
					<path class="st10" d="M258.2,48.2l6.3-30.9l5.7,30.9H258.2z M274.7,10.6c-0.8-2.7-2.1-5-4-6.9c-1.9-1.8-4.1-2.8-6.7-2.8
						c-2.3,0-4.2,0.9-5.8,2.6c-1.6,1.8-2.8,3.8-3.5,6.2L237,73.1h14.2l3.7-13.6h19.2l3.5,13.6h14.1L274.7,10.6z"/>
				</g>
			</g>
		</g>
	</g>
</g>
</svg>
