<?xml version="1.0" encoding="utf-8"?>
<!-- Generator: Adobe Illustrator 21.1.0, SVG Export Plug-In . SVG Version: 6.00 Build 0)  -->
<svg version="1.1" id="レイヤー_1" xmlns="http://www.w3.org/2000/svg" xmlns:xlink="http://www.w3.org/1999/xlink" x="0px"
	 y="0px" viewBox="0 0 60 60" style="enable-background:new 0 0 60 60;" xml:space="preserve">
<style type="text/css">
	.st0{display:none;}
	.st1{display:inline;fill:none;stroke:#8E8E8E;stroke-miterlimit:10;}
	.st2{display:inline;}
	.st3{fill:none;stroke:#8E8E8E;stroke-miterlimit:10;}
	.st4{fill:none;stroke:#FFFFFF;stroke-width:2;stroke-miterlimit:10;}
	.st5{fill:none;stroke:#919191;stroke-miterlimit:10;}
	.st6{display:inline;fill:#919191;}
	.st7{font-family:'HiraKakuProN-W3-83pv-RKSJ-H';}
	.st8{font-size:20px;}
	.st9{letter-spacing:2;}
	.st10{display:inline;fill:none;stroke:#919191;stroke-miterlimit:10;}
</style>
<g id="nav_x5F_about_x5F_icon" class="st0">
	<path class="st1" d="M40.1,42.4H22.4c-2.8,0-5-2.2-5-5V19.7c0-2.8,2.2-5,5-5h17.7c2.8,0,5,2.2,5,5v17.7
		C45.1,40.1,42.9,42.4,40.1,42.4z"/>
</g>
<g id="nav_x5F_user_x5F_icon" class="st0">
	<g class="st2">
		<circle class="st3" cx="31.2" cy="19.4" r="4.7"/>
		<path class="st3" d="M31.3,30c-1.5,0-2.8-0.3-4.1-0.8l-6.3,3.9l1,9.2h18.9l1-9.2l-6.3-3.9C34.1,29.7,32.7,30,31.3,30z"/>
	</g>
</g>
<g id="nav_x5F_prapoly_x5F_icon" class="st0">
	<g class="st2">
		<line class="st3" x1="17.3" y1="17.6" x2="45.1" y2="17.6"/>
		<line class="st3" x1="17.3" y1="28.5" x2="33.7" y2="28.5"/>
		<line class="st3" x1="17.3" y1="39.5" x2="45.1" y2="39.5"/>
	</g>
</g>
<g id="nav_x5F_link_x5F_icon" class="st0">
	<g class="st2">
		<rect x="17.6" y="16.8" class="st3" width="22.1" height="17.7"/>
		<polyline class="st3" points="45,21 45,40.2 22,40.2 		"/>
	</g>
</g>
<g id="menu_x5F_buy_x5F_tk">
	<g>
		<g>
			<g>
				<polygon class="st4" points="58.5,51.4 9.3,51.4 9.3,33.5 12.7,30.1 9.3,30.1 9.3,23.3 58.5,23.3 				"/>
			</g>
			<g>
				<g>
					<line class="st4" x1="22.2" y1="44.8" x2="22.2" y2="49.2"/>
				</g>
				<g>
					<line class="st4" x1="22.2" y1="38.4" x2="22.2" y2="42.8"/>
				</g>
				<g>
					<line class="st4" x1="22.2" y1="31.9" x2="22.2" y2="36.3"/>
				</g>
				<g>
					<line class="st4" x1="22.2" y1="25.5" x2="22.2" y2="29.9"/>
				</g>
			</g>
		</g>
		<g>
			<g>
				<polyline class="st4" points="50.7,18.6 50.7,12.7 1.5,12.7 1.5,19.5 5,19.5 1.5,22.9 1.5,37.7 5.2,37.7 				"/>
			</g>
		</g>
	</g>
</g>
<g id="menu_x5F_holder_x5F_tk" class="st0">
	<g class="st2">
		<g>
			<g>
				<path class="st5" d="M5.5,48.8v-7h18.3c0,3.5,3.4,6.3,7.3,6.3s7.4-2.8,7.4-6.3h16v7"/>
			</g>
		</g>
		<g>
			<g>
				<polyline class="st5" points="46.4,41.8 46.4,11.2 37.4,11.2 37.4,15.7 33,11.2 13.6,11.2 13.6,41.8 				"/>
			</g>
			<g>
				<g>
					<line class="st5" x1="21.6" y1="28.1" x2="17.6" y2="28.1"/>
				</g>
				<g>
					<line class="st5" x1="28.5" y1="28.1" x2="24.5" y2="28.1"/>
				</g>
				<g>
					<line class="st5" x1="35.5" y1="28.1" x2="31.5" y2="28.1"/>
				</g>
				<g>
					<line class="st5" x1="42.4" y1="28.1" x2="38.4" y2="28.1"/>
				</g>
			</g>
		</g>
	</g>
</g>
<g id="menu_x5F_point" class="st0">
	<text transform="matrix(1 0 0 1 24.3802 38.2395)" class="st6 st7 st8 st9">P</text>
	<circle class="st10" cx="31" cy="30" r="20.2"/>
</g>
</svg>
