<?xml version="1.0" encoding="utf-8"?>
<!-- Generator: Adobe Illustrator 20.0.0, SVG Export Plug-In . SVG Version: 6.00 Build 0)  -->
<svg version="1.1" id="レイヤー_1" xmlns="http://www.w3.org/2000/svg" xmlns:xlink="http://www.w3.org/1999/xlink" x="0px"
	 y="0px" viewBox="0 0 100 60.8" style="enable-background:new 0 0 100 60.8;" xml:space="preserve">
<style type="text/css">
	.st0{fill:#00A0E9;}
	.st1{fill:#0D131A;}
	.st2{fill:#898989;}
	.st3{fill:#FFFFFF;}
</style>
<g>
	<path class="st0" d="M100,0l-2.8,0.6C85.4,2.9,68.2,4.2,50,4.2c-18.2,0-35.4-1.3-47.2-3.6L0,0l0,60.8l2.8-0.6
		c11.8-2.3,29-3.6,47.2-3.6c18.2,0,35.4,1.3,47.2,3.6l2.8,0.6V0z"/>
	<path class="st1" d="M97.9,2.5l-0.3,0.1C85.7,4.9,68.3,6.3,50,6.3c-18.3,0-35.7-1.3-47.6-3.7L2.1,2.5v0.4v55.4l0.3-0.1
		c11.9-2.3,29.2-3.7,47.6-3.7s35.7,1.3,47.6,3.7l0.3,0.1V2.5z"/>
	<path class="st2" d="M8.3,11.1c0,0.3-0.2,0.5-0.4,0.5H4.2c-0.2,0-0.4-0.2-0.4-0.5V8.2c0-0.3,0.2-0.5,0.4-0.5h3.7
		c0.2,0,0.4,0.2,0.4,0.5V11.1z"/>
	<path class="st2" d="M8.3,21.4c0,0.3-0.2,0.5-0.4,0.5H4.2c-0.2,0-0.4-0.2-0.4-0.5v-2.9c0-0.3,0.2-0.5,0.4-0.5h3.7
		c0.2,0,0.4,0.2,0.4,0.5V21.4z"/>
	<path class="st2" d="M8.3,31.8c0,0.3-0.2,0.5-0.4,0.5H4.2c-0.2,0-0.4-0.2-0.4-0.5v-2.9c0-0.3,0.2-0.5,0.4-0.5h3.7
		c0.2,0,0.4,0.2,0.4,0.5V31.8z"/>
	<path class="st2" d="M8.3,42.1c0,0.3-0.2,0.5-0.4,0.5H4.2c-0.2,0-0.4-0.2-0.4-0.5v-2.9c0-0.3,0.2-0.5,0.4-0.5h3.7
		c0.2,0,0.4,0.2,0.4,0.5V42.1z"/>
	<path class="st2" d="M8.3,52.4c0,0.3-0.2,0.5-0.4,0.5H4.2c-0.2,0-0.4-0.2-0.4-0.5v-2.9c0-0.3,0.2-0.5,0.4-0.5h3.7
		c0.2,0,0.4,0.2,0.4,0.5V52.4z"/>
	<path class="st2" d="M96.2,11.1c0,0.3-0.2,0.5-0.4,0.5h-3.7c-0.2,0-0.4-0.2-0.4-0.5V8.2c0-0.3,0.2-0.5,0.4-0.5h3.7
		c0.2,0,0.4,0.2,0.4,0.5V11.1z"/>
	<path class="st2" d="M96.2,21.4c0,0.3-0.2,0.5-0.4,0.5h-3.7c-0.2,0-0.4-0.2-0.4-0.5v-2.9c0-0.3,0.2-0.5,0.4-0.5h3.7
		c0.2,0,0.4,0.2,0.4,0.5V21.4z"/>
	<path class="st2" d="M96.2,31.8c0,0.3-0.2,0.5-0.4,0.5h-3.7c-0.2,0-0.4-0.2-0.4-0.5v-2.9c0-0.3,0.2-0.5,0.4-0.5h3.7
		c0.2,0,0.4,0.2,0.4,0.5V31.8z"/>
	<path class="st2" d="M96.2,42.1c0,0.3-0.2,0.5-0.4,0.5h-3.7c-0.2,0-0.4-0.2-0.4-0.5v-2.9c0-0.3,0.2-0.5,0.4-0.5h3.7
		c0.2,0,0.4,0.2,0.4,0.5V42.1z"/>
	<path class="st2" d="M96.2,52.4c0,0.3-0.2,0.5-0.4,0.5h-3.7c-0.2,0-0.4-0.2-0.4-0.5v-2.9c0-0.3,0.2-0.5,0.4-0.5h3.7
		c0.2,0,0.4,0.2,0.4,0.5V52.4z"/>
	<path class="st3" d="M28,16c-1.7,0-3.1,0.4-4.1,1.2c-1,0.8-1.5,1.9-1.5,3.3c0,1.6,0.5,2.8,1.6,3.5c1,0.7,2.3,1.1,3.9,1.1v3
		c-0.2,0-0.3,0.1-0.5,0.1c-0.2,0-0.4,0-0.6,0c-1.9,0-3.6-0.7-5.1-2c-1.5-1.4-2.3-3.2-2.3-5.5c0-2.3,0.7-4.1,2.2-5.5
		c1.5-1.4,3.2-2.1,5.2-2.1h0.7H28V16z"/>
	<rect x="30" y="13.2" class="st3" width="2.9" height="15"/>
	<path class="st3" d="M45.3,26.2c0,0.6-0.2,1.1-0.6,1.5c-0.4,0.4-0.8,0.6-1.3,0.6c-0.3,0-0.7-0.1-1-0.3c-0.3-0.2-0.6-0.5-0.7-0.9
		l-3.7-9.3l-0.2,0v10.3h-2.6v-13c0-0.5,0.2-1,0.5-1.5c0.3-0.4,0.8-0.7,1.3-0.7c0.3,0,0.7,0.1,1,0.4c0.4,0.2,0.6,0.5,0.8,0.9l3.7,9.3
		h0.2V13.1h2.6V26.2z"/>
	<path class="st3" d="M54.5,28.1h-4.9c-0.6,0-1.2-0.2-1.6-0.7c-0.4-0.5-0.6-1.1-0.6-1.7v-10c0-0.7,0.2-1.4,0.5-1.9
		c0.3-0.5,0.8-0.7,1.3-0.7h5.2v3h-4.2v2.7h3.9v2.9h-3.9v3.4h4.2V28.1z"/>
	<path class="st3" d="M68.1,28.1h-2.2l0-10.6l-2,9.1c-0.1,0.5-0.3,0.9-0.5,1.2c-0.2,0.3-0.5,0.4-0.9,0.4c-0.4,0-0.8-0.2-1-0.5
		c-0.2-0.3-0.4-0.7-0.5-1.3l-2.2-8.8l0,10.5h-2.3v-13c0-0.6,0.2-1.1,0.5-1.5c0.4-0.4,0.8-0.5,1.3-0.5c0.5,0,0.8,0.1,1.1,0.4
		c0.3,0.3,0.5,0.7,0.6,1.2l2.3,9.6l2.1-10.1c0.1-0.3,0.3-0.6,0.6-0.8c0.3-0.2,0.7-0.4,1-0.4c0.4,0,0.8,0.2,1.2,0.5
		c0.5,0.4,0.7,0.9,0.7,1.7V28.1z"/>
	<path class="st3" d="M73.5,22.8l1.3-6.5l1.2,6.5H73.5z M77,14.9c-0.2-0.6-0.5-1.1-0.8-1.4c-0.4-0.4-0.9-0.6-1.4-0.6
		c-0.5,0-0.9,0.2-1.2,0.5c-0.3,0.4-0.6,0.8-0.7,1.3l-3.7,13.3h3l0.8-2.9h4l0.7,2.9h3L77,14.9z"/>
	<path class="st3" d="M19.5,36.6c-0.5-0.4-0.9-0.6-1.4-0.8c-0.5-0.2-1-0.3-1.5-0.3c-0.5,0-0.9,0.1-1.3,0.5c-0.4,0.3-0.6,0.7-0.6,1.2
		c0,0.7,0.6,1.3,1.8,1.8c1.2,0.5,2,0.9,2.6,1.4c0.6,0.5,0.8,1.5,0.8,3.2c0,1.5-0.4,2.6-1.2,3.3c-0.8,0.7-1.9,1.1-3.1,1.1
		c-0.6,0-1.1-0.1-1.7-0.2c-0.6-0.1-1.1-0.3-1.7-0.6V44c0.5,0.2,1.1,0.5,1.7,0.7c0.6,0.2,1.2,0.3,1.7,0.3c0.7,0,1.2-0.2,1.5-0.5
		c0.3-0.3,0.5-0.7,0.5-1.1c0-0.6-0.6-1.2-1.8-1.6c-1.2-0.5-2.1-1-2.7-1.5c-0.6-0.5-1-1.6-1-3.1c0-1.3,0.4-2.3,1.2-3.2
		c0.8-0.9,1.9-1.3,3.1-1.3c0.6,0,1.2,0,1.6,0.1c0.5,0.1,1,0.3,1.5,0.5V36.6z"/>
	<path class="st3" d="M30.9,42.9c0,1.3-0.5,2.5-1.4,3.6c-0.9,1-2,1.6-3.4,1.6c-1.1,0-2.2-0.5-3.1-1.4c-1-1-1.4-2.1-1.4-3.3V32.9h2.7
		V43c0,0.5,0.2,1,0.6,1.4c0.4,0.4,0.8,0.6,1.3,0.6c0.6,0,1-0.2,1.4-0.6c0.4-0.4,0.6-0.9,0.6-1.4V32.9h2.8V42.9z"/>
	<path class="st3" d="M42.3,46c0,0.6-0.2,1.1-0.6,1.5C41.4,47.8,41,48,40.6,48c-0.3,0-0.7-0.1-1-0.3c-0.3-0.2-0.5-0.5-0.7-0.9
		l-3.4-9.3l-0.1,0v10.3H33v-13c0-0.5,0.2-1,0.5-1.5c0.3-0.4,0.7-0.7,1.2-0.7c0.3,0,0.6,0.1,0.9,0.3c0.3,0.2,0.6,0.5,0.7,0.9l3.4,9.3
		h0.2V32.9h2.4V46z"/>
	<path class="st3" d="M51.5,36.6c-0.5-0.4-0.9-0.6-1.4-0.8c-0.5-0.2-1-0.3-1.5-0.3c-0.5,0-0.9,0.1-1.3,0.5c-0.4,0.3-0.6,0.7-0.6,1.2
		c0,0.7,0.6,1.3,1.8,1.8c1.2,0.5,2,0.9,2.6,1.4c0.6,0.5,0.8,1.5,0.8,3.2c0,1.5-0.4,2.6-1.2,3.3c-0.8,0.7-1.9,1.1-3.1,1.1
		c-0.6,0-1.1-0.1-1.7-0.2c-0.6-0.1-1.1-0.3-1.7-0.6V44c0.5,0.2,1.1,0.5,1.7,0.7c0.6,0.2,1.2,0.3,1.7,0.3c0.7,0,1.2-0.2,1.5-0.5
		c0.3-0.3,0.5-0.7,0.5-1.1c0-0.6-0.6-1.2-1.8-1.6c-1.2-0.5-2.1-1-2.7-1.5c-0.6-0.5-1-1.6-1-3.1c0-1.3,0.4-2.3,1.2-3.2
		c0.8-0.9,1.9-1.3,3.1-1.3c0.6,0,1.2,0,1.6,0.1c0.5,0.1,1,0.3,1.5,0.5V36.6z"/>
	<polygon class="st3" points="63.1,47.9 60.3,47.9 60.3,41.6 56.4,41.6 56.4,47.9 53.6,47.9 53.6,32.9 56.4,32.9 56.4,38.6 
		60.3,38.6 60.3,32.9 63.1,32.9 	"/>
	<rect x="65.4" y="33" class="st3" width="2.7" height="15"/>
	<path class="st3" d="M79.5,46c0,0.6-0.2,1.1-0.6,1.5c-0.4,0.4-0.8,0.6-1.2,0.6c-0.3,0-0.7-0.1-1-0.3c-0.3-0.2-0.5-0.5-0.7-0.9
		l-3.4-9.3l-0.1,0v10.3h-2.4v-13c0-0.5,0.2-1,0.5-1.5c0.3-0.4,0.7-0.7,1.2-0.7c0.3,0,0.6,0.1,0.9,0.3c0.3,0.2,0.6,0.5,0.7,0.9
		l3.4,9.3h0.2V32.9h2.4V46z"/>
	<path class="st3" d="M87.8,47.9h-4.5c-0.6,0-1.1-0.2-1.4-0.7c-0.4-0.5-0.5-1.1-0.5-1.7v-10c0-0.7,0.2-1.4,0.5-1.9
		c0.3-0.5,0.7-0.7,1.2-0.7h4.8v3H84v2.7h3.6v2.9H84v3.4h3.8V47.9z"/>
</g>
</svg>
