<?xml version="1.0" encoding="utf-8"?>
<!-- Generator: Adobe Illustrator 21.1.0, SVG Export Plug-In . SVG Version: 6.00 Build 0)  -->
<svg version="1.1" xmlns="http://www.w3.org/2000/svg" xmlns:xlink="http://www.w3.org/1999/xlink" x="0px" y="0px"
	 viewBox="0 0 219.6 112.3" style="enable-background:new 0 0 219.6 112.3;" xml:space="preserve">
<style type="text/css">
	.st0{display:none;}
	.st1{display:inline;fill:#3F3B0A;stroke:#6D6D6D;stroke-miterlimit:10;}
	.st2{fill:none;stroke:#6D6D6D;stroke-width:7;stroke-miterlimit:10;}
	.st3{fill-rule:evenodd;clip-rule:evenodd;fill:none;stroke:#6D6D6D;stroke-miterlimit:10;}
	.st4{fill:none;stroke:#6D6D6D;stroke-miterlimit:10;}
	.st5{display:inline;}
	.st6{fill:#FFFFFF;}
	.st7{fill-rule:evenodd;clip-rule:evenodd;fill:none;stroke:#FFFFFF;stroke-width:2;stroke-miterlimit:10;}
	.st8{fill:none;stroke:#FFFFFF;stroke-width:2;stroke-miterlimit:10;}
</style>
<g id="レイヤー_2" class="st0">
	<rect x="-48.2" y="-44.2" class="st1" width="339.5" height="216.2"/>
</g>
<g id="レイヤー_3_1_">
	<g>
		<g>
			<line class="st2" x1="138.8" y1="22.1" x2="138.8" y2="63.6"/>
			<line class="st2" x1="138.8" y1="78.9" x2="138.8" y2="87.6"/>
		</g>
		<g>
			<g>
				<polygon class="st3" points="1.1,1.1 1.1,31.1 16.1,31.1 1.1,46.1 1.1,111.1 218.5,111.1 218.5,1.1 				"/>
			</g>
			<g>
				<line class="st4" x1="57.9" y1="0.9" x2="57.9" y2="10.9"/>
				<line class="st4" x1="57.9" y1="20.9" x2="57.9" y2="30.9"/>
				<line class="st4" x1="57.9" y1="40.9" x2="57.9" y2="50.9"/>
				<line class="st4" x1="57.9" y1="60.9" x2="57.9" y2="70.9"/>
				<line class="st4" x1="57.9" y1="80.9" x2="57.9" y2="90.9"/>
				<line class="st4" x1="57.9" y1="100.9" x2="57.9" y2="110.9"/>
			</g>
		</g>
	</g>
</g>
<g id="レイヤー_4" class="st0">
	<g class="st5">
		<g>
			<g>
				<g>
					<path class="st6" d="M106.2,64c0,1.1,0.1,1.8,0.2,2.6l-2.3,0c0.1-0.7,0.2-1.5,0.2-2.6l-0.1-13.5l-3.7,0c-1.2,0-2,0.1-2.8,0.2
						l0-2c0.8,0.1,1.5,0.2,2.7,0.2l9.4,0c1.4,0,2-0.1,2.8-0.2l0,2c-0.8-0.1-1.5-0.2-2.8-0.2l-3.7,0L106.2,64z"/>
					<path class="st6" d="M118.2,48.9l0,2.1l-2.3,0l0-2.1L118.2,48.9z M118.2,54c-0.1,0.8-0.2,1.5-0.2,2.6l0,7.3
						c0,1.1,0.1,1.7,0.2,2.6l-2.2,0c0.1-1,0.2-1.7,0.2-2.6l0-7.3c0-1.1-0.1-1.8-0.2-2.6L118.2,54z"/>
					<path class="st6" d="M132.1,57.8c-0.7-1.8-1.9-2.7-3.6-2.7c-2.6,0-4.3,2-4.3,5.1c0,3.1,1.8,5,4.4,5c1.4,0,2.5-0.5,3.1-1.5
						c0.2-0.4,0.4-0.6,0.5-1.2l1.8,0.5c-0.3,0.8-0.6,1.3-1,1.8c-1,1.3-2.6,2-4.5,2c-3.8,0-6.2-2.5-6.2-6.5c0-4,2.4-6.7,6-6.7
						c2,0,3.6,0.7,4.6,2.1c0.3,0.4,0.6,0.8,0.8,1.5L132.1,57.8z"/>
					<path class="st6" d="M140,48.8c-0.1,0.8-0.2,1.4-0.2,2.6l0,8.4l4.3-4.1c1-1,1.4-1.4,1.7-1.8l2.9,0c-0.3,0.3-0.3,0.3-1,0.9
						c-0.2,0.2-0.5,0.5-0.9,0.8c-0.2,0.2-0.3,0.3-0.4,0.4l-3.3,3l4.1,5.1c1.4,1.8,1.6,1.9,2.1,2.4l-2.7,0c-0.3-0.6-0.3-0.7-1.5-2.2
						l-3.2-4.2l-2,1.9l0,2c0,1,0.1,1.8,0.2,2.6l-2.1,0c0.1-0.8,0.2-1.5,0.2-2.6l-0.1-12.5c0-1.2-0.1-1.8-0.2-2.6L140,48.8z"/>
					<path class="st6" d="M154.2,60.4c0.1,1.6,0.3,2.4,1,3.3c0.8,1,2,1.6,3.4,1.6c1.9,0,3.3-0.9,3.9-2.7l1.7,0.6
						c-0.5,1-0.8,1.4-1.3,1.9c-1.1,1.1-2.6,1.6-4.3,1.7c-3.8,0-6.2-2.5-6.2-6.6c0-4,2.3-6.6,5.9-6.6c3.1,0,5.3,1.9,5.8,5
						c0,0.3,0.1,1.2,0.2,1.8L154.2,60.4z M162.4,58.9c-0.2-1.3-0.5-2.1-1.3-2.9c-0.7-0.7-1.7-1-2.8-1c-1.5,0-2.7,0.7-3.4,2
						c-0.3,0.6-0.5,1-0.6,1.9L162.4,58.9z"/>
					<path class="st6" d="M171.9,50.3c-0.1,0.7-0.2,1.6-0.2,2.6l0,0.9l1.2,0c1.1,0,1.6,0,2.4-0.1l0,1.8c-0.8-0.1-1.4-0.1-2.4-0.1
						l-1.2,0l0,8.1c0,0.7,0.1,1,0.3,1.2c0.3,0.3,0.7,0.4,1.2,0.4c0.6,0,1.1-0.1,1.9-0.6l0.5,1.6c-1,0.4-1.7,0.5-2.7,0.5
						c-1.1,0-1.9-0.2-2.4-0.7c-0.5-0.5-0.7-1.1-0.7-2.2l0-8.3l-1,0c-0.8,0-1.4,0.1-2.2,0.1l0-1.8c0.7,0.1,1.2,0.1,2.2,0.1l1,0l0-0.9
						c0-0.9-0.1-1.8-0.2-2.6L171.9,50.3z"/>
				</g>
			</g>
			<polygon class="st7" points="1.1,1.1 1.1,31.1 16.1,31.1 1.1,46.1 1.1,111.1 218.5,111.1 218.5,1.1 			"/>
		</g>
		<g>
			<line class="st8" x1="57.9" y1="0.9" x2="57.9" y2="10.9"/>
			<line class="st8" x1="57.9" y1="20.9" x2="57.9" y2="30.9"/>
			<line class="st8" x1="57.9" y1="40.9" x2="57.9" y2="50.9"/>
			<line class="st8" x1="57.9" y1="60.9" x2="57.9" y2="70.9"/>
			<line class="st8" x1="57.9" y1="80.9" x2="57.9" y2="90.9"/>
			<line class="st8" x1="57.9" y1="100.9" x2="57.9" y2="110.9"/>
		</g>
	</g>
</g>
</svg>
