<?xml version="1.0" encoding="utf-8"?>
<!-- Generator: Adobe Illustrator 21.1.0, SVG Export Plug-In . SVG Version: 6.00 Build 0)  -->
<svg version="1.1" id="レイヤー_1" xmlns="http://www.w3.org/2000/svg" xmlns:xlink="http://www.w3.org/1999/xlink" x="0px"
	 y="0px" viewBox="0 0 60 60" style="enable-background:new 0 0 60 60;" xml:space="preserve">
<style type="text/css">
	.st0{fill:none;stroke:#8E8E8E;stroke-width:2;stroke-miterlimit:10;}
	.st1{display:none;}
	.st2{display:inline;}
	.st3{fill:none;stroke:#8E8E8E;stroke-miterlimit:10;}
</style>
<g id="nav_x5F_about_x5F_icon">
	<path class="st0" d="M48.5,58.9H11.6c-5.8,0-10.4-4.6-10.4-10.4V11.5c0-5.8,4.6-10.4,10.4-10.4h36.9C54.4,1.1,59,5.7,59,11.5v36.9
		C59,54.1,54.4,58.9,48.5,58.9z"/>
</g>
<g id="nav_x5F_user_x5F_icon" class="st1">
	<g class="st2">
		<circle class="st3" cx="31.2" cy="19.4" r="4.7"/>
		<path class="st3" d="M31.3,30c-1.5,0-2.8-0.3-4.1-0.8l-6.3,3.9l1,9.2h18.9l1-9.2l-6.3-3.9C34.1,29.7,32.7,30,31.3,30z"/>
	</g>
</g>
<g id="nav_x5F_prapoly_x5F_icon" class="st1">
	<g class="st2">
		<line class="st3" x1="17.3" y1="17.6" x2="45.1" y2="17.6"/>
		<line class="st3" x1="17.3" y1="28.5" x2="33.7" y2="28.5"/>
		<line class="st3" x1="17.3" y1="39.5" x2="45.1" y2="39.5"/>
	</g>
</g>
<g id="nav_x5F_link_x5F_icon" class="st1">
	<g class="st2">
		<rect x="17.6" y="16.8" class="st3" width="22.1" height="17.7"/>
		<polyline class="st3" points="45,21 45,40.2 22,40.2 		"/>
	</g>
</g>
</svg>
